<svg xmlns="http://www.w3.org/2000/svg" width="1000" height="254" viewBox="0 0 1000 254" role="img" aria-label="Développement: TypeScript, JavaScript, Python, React, Next.js, Vite, Tailwind CSS, Node.js, Flutter, Dart, Android, Expo"><title>Développement: TypeScript, JavaScript, Python, React, Next.js, Vite, Tailwind CSS, Node.js, Flutter, Dart, Android, Expo</title><defs><path id="g0" d="M0.7 0V-8.2H3Q4.1 -8.2 4.8 -7.7Q5.6 -7.3 6 -6.4Q6.4 -5.5 6.4 -4.2V-4Q6.4 -2.8 6 -1.9Q5.6 -1 4.8 -0.5Q4.1 0 3 0ZM2.2 -1.4H3Q3.9 -1.4 4.4 -2.1Q4.8 -2.7 4.8 -4V-4.3Q4.8 -5.5 4.4 -6.2Q3.9 -6.8 3 -6.8H2.2Z"/><path id="g1" d="M0.9 0V-8.2H5.9V-6.8H2.4V-1.4H6V0ZM1.8 -3.5V-4.9H5.4V-3.5ZM2.7 -9.4V-9.5L3.8 -11.6H5.6V-11.5L4.1 -9.4Z"/><path id="g2" d="M2.8 0 0.2 -8.2H1.8L3.2 -3L3.4 -1.7H3.5L3.7 -3L5.2 -8.2H6.7L4.1 0Z"/><path id="g3" d="M0.9 0V-8.2H5.9V-6.8H2.4V-1.4H6V0ZM1.8 -3.5V-4.9H5.4V-3.5Z"/><path id="g4" d="M1 0V-8.2H2.5V-1.4H6.3V0Z"/><path id="g5" d="M0.4 -4V-4.2Q0.4 -5.5 0.7 -6.5Q1.1 -7.4 1.8 -7.9Q2.5 -8.4 3.4 -8.4Q4.4 -8.4 5.1 -7.9Q5.8 -7.4 6.2 -6.5Q6.5 -5.5 6.5 -4.2V-4Q6.5 -2.7 6.2 -1.8Q5.8 -0.8 5.1 -0.3Q4.4 0.2 3.4 0.2Q2.5 0.2 1.8 -0.3Q1.1 -0.8 0.7 -1.8Q0.4 -2.7 0.4 -4ZM5 -4V-4.3Q5 -5.6 4.6 -6.3Q4.2 -7 3.5 -7Q2.7 -7 2.3 -6.3Q1.9 -5.6 1.9 -4.3V-4Q1.9 -2.7 2.3 -2Q2.7 -1.3 3.5 -1.3Q4.2 -1.3 4.6 -2Q5 -2.7 5 -4Z"/><path id="g6" d="M0.8 0V-8.2H3.4Q4.3 -8.2 4.9 -7.9Q5.6 -7.6 5.9 -7Q6.3 -6.4 6.3 -5.6V-5.4Q6.3 -4.6 5.9 -4Q5.6 -3.4 4.9 -3.1Q4.3 -2.7 3.4 -2.7H1.7V-4.1H3.4Q4 -4.1 4.4 -4.5Q4.7 -4.8 4.7 -5.4V-5.6Q4.7 -6.2 4.4 -6.5Q4 -6.8 3.4 -6.8H2.3V0Z"/><path id="g7" d="M0.4 0V-8.2H1.9L2.9 -5.6L3.4 -4.1H3.5L4 -5.6L5 -8.2H6.5V0H5.1V-3.3L5.3 -5.8H5.2L4 -2.5H2.9L1.7 -5.8H1.6L1.8 -3.3V0Z"/><path id="g8" d="M0.5 0V-8.2H2L5 -2.7H5L4.9 -4.6V-8.2H6.4V0H5L1.9 -5.8H1.9L2 -3.9V0Z"/><path id="g9" d="M2.7 0V-7.5H4.2V0ZM0.5 -6.8V-8.2H6.4V-6.8Z"/><path id="g10" d="M2.8 0V-8.2H4.2V0ZM0.3 -7.7V-9H6.7V-7.7Z"/><path id="g11" d="M2.9 2.4Q2.9 2.5 2.8 2.6Q2.8 2.7 2.8 2.7H1.3Q1.4 2.6 1.5 2.3Q1.6 2.1 1.7 1.8Q1.8 1.7 1.9 1.5Q2 1.3 2.1 1.1Q2.1 0.9 2.2 0.7L3.2 -1.3L3.4 -2L5.2 -6.4H6.7L3.4 1.2Q3.3 1.4 3.2 1.7Q3.1 1.9 3 2.1Q2.9 2.3 2.9 2.4ZM2.8 -0.2 0.1 -6.4H1.6L3.4 -2H3.5Z"/><path id="g12" d="M0.8 2.7V-6.4H2.1V-5.5H2.1Q2.3 -5.8 2.6 -6Q2.9 -6.3 3.3 -6.4Q3.7 -6.6 4.2 -6.6Q5.1 -6.6 5.7 -6.1Q6.4 -5.7 6.8 -4.9Q7.2 -4.2 7.2 -3.2Q7.2 -2.2 6.8 -1.4Q6.4 -0.7 5.7 -0.2Q5.1 0.2 4.2 0.2Q3.5 0.2 2.9 -0.1Q2.4 -0.5 2.1 -0.9H2.1L2.1 0V2.7ZM4 -1Q4.5 -1 4.9 -1.3Q5.4 -1.6 5.6 -2Q5.9 -2.5 5.9 -3.2Q5.9 -3.9 5.6 -4.3Q5.4 -4.8 4.9 -5.1Q4.5 -5.3 4 -5.3Q3.5 -5.3 3 -5.1Q2.6 -4.8 2.3 -4.3Q2.1 -3.9 2.1 -3.2Q2.1 -2.5 2.3 -2Q2.6 -1.6 3 -1.3Q3.5 -1 4 -1Z"/><path id="g13" d="M3.7 0.2Q2.8 0.2 2 -0.2Q1.3 -0.7 0.9 -1.4Q0.4 -2.2 0.4 -3.2Q0.4 -4.1 0.8 -4.9Q1.2 -5.6 2 -6.1Q2.7 -6.6 3.6 -6.6Q4.6 -6.6 5.3 -6.2Q6 -5.7 6.4 -5Q6.7 -4.2 6.7 -3.3Q6.7 -3.2 6.7 -3.1Q6.7 -3 6.7 -2.9H1.2V-3.9H5.4Q5.4 -4.2 5.2 -4.4Q5.1 -4.7 4.9 -4.9Q4.7 -5.1 4.4 -5.3Q4.1 -5.4 3.6 -5.4Q3.1 -5.4 2.7 -5.1Q2.2 -4.9 2 -4.4Q1.8 -3.9 1.8 -3.2Q1.8 -2.5 2 -2Q2.3 -1.5 2.8 -1.2Q3.2 -1 3.7 -1Q4.4 -1 4.8 -1.3Q5.2 -1.6 5.5 -2L6.6 -1.5Q6.2 -0.7 5.5 -0.3Q4.8 0.2 3.7 0.2Z"/><path id="g14" d="M3.6 0.2Q2.9 0.2 2.2 -0.1Q1.6 -0.4 1.1 -0.9Q0.6 -1.5 0.4 -2.3L1.7 -2.8Q1.9 -2.1 2.4 -1.6Q2.9 -1.1 3.6 -1.1Q4 -1.1 4.4 -1.2Q4.8 -1.4 5 -1.7Q5.2 -2 5.2 -2.4Q5.2 -2.8 5 -3.1Q4.9 -3.4 4.4 -3.6Q4 -3.8 3.4 -4.1L2.8 -4.3Q2.5 -4.4 2.1 -4.6Q1.7 -4.8 1.4 -5.1Q1.1 -5.4 0.9 -5.8Q0.7 -6.2 0.7 -6.7Q0.7 -7.4 1.1 -7.9Q1.4 -8.5 2 -8.8Q2.7 -9.2 3.5 -9.2Q4.4 -9.2 5 -8.8Q5.5 -8.5 5.9 -8.1Q6.2 -7.7 6.3 -7.3L5.1 -6.8Q5 -7 4.8 -7.3Q4.6 -7.5 4.3 -7.7Q4 -7.9 3.5 -7.9Q3.1 -7.9 2.8 -7.7Q2.5 -7.6 2.3 -7.3Q2.1 -7.1 2.1 -6.7Q2.1 -6.2 2.5 -5.9Q2.9 -5.6 3.6 -5.4L4.2 -5.2Q4.6 -5 5.1 -4.8Q5.5 -4.6 5.8 -4.3Q6.2 -4 6.4 -3.5Q6.6 -3.1 6.6 -2.4Q6.6 -1.8 6.3 -1.2Q6.1 -0.7 5.6 -0.4Q5.2 -0.1 4.6 0.1Q4.1 0.2 3.6 0.2Z"/><path id="g15" d="M3.7 0.2Q2.8 0.2 2 -0.2Q1.3 -0.7 0.9 -1.4Q0.4 -2.2 0.4 -3.2Q0.4 -4.2 0.9 -4.9Q1.3 -5.7 2 -6.1Q2.8 -6.6 3.7 -6.6Q4.8 -6.6 5.5 -6.1Q6.2 -5.6 6.6 -4.8L5.3 -4.3Q5.1 -4.8 4.7 -5.1Q4.3 -5.3 3.7 -5.3Q3.2 -5.3 2.7 -5.1Q2.3 -4.8 2 -4.3Q1.8 -3.9 1.8 -3.2Q1.8 -2.5 2 -2Q2.3 -1.6 2.7 -1.3Q3.2 -1 3.7 -1Q4.3 -1 4.7 -1.3Q5.2 -1.6 5.4 -2.1L6.6 -1.6Q6.2 -0.8 5.5 -0.3Q4.8 0.2 3.7 0.2Z"/><path id="g16" d="M0.8 0V-6.4H2.1V-5.4H2.1Q2.3 -5.8 2.6 -6Q2.8 -6.3 3.2 -6.4Q3.6 -6.6 4 -6.6Q4.2 -6.6 4.4 -6.5Q4.6 -6.5 4.8 -6.4V-5Q4.5 -5.1 4.3 -5.2Q4 -5.3 3.8 -5.3Q3.3 -5.3 2.9 -5Q2.6 -4.8 2.3 -4.3Q2.1 -3.9 2.1 -3.4V0Z"/><path id="g17" d="M0.8 0V-6.4H2.1V0ZM1.5 -7.3Q1.1 -7.3 0.8 -7.6Q0.5 -7.9 0.5 -8.2Q0.5 -8.6 0.8 -8.9Q1.1 -9.1 1.5 -9.1Q1.8 -9.1 2.1 -8.9Q2.4 -8.6 2.4 -8.2Q2.4 -7.9 2.1 -7.6Q1.8 -7.3 1.5 -7.3Z"/><path id="g18" d="M0.3 -5.2V-6.4H1.5V-5.2ZM3.4 0.1Q2.5 0.1 2 -0.4Q1.4 -1 1.4 -1.9V-8.2H2.8V-2.1Q2.8 -1.6 3 -1.4Q3.2 -1.2 3.6 -1.2Q3.8 -1.2 4 -1.2Q4.2 -1.3 4.4 -1.4V-0.1Q4.2 0 3.9 0.1Q3.7 0.1 3.4 0.1ZM2.7 -5.2V-6.4H4.3V-5.2Z"/><path id="g19" d="M3.2 0.2Q2.1 0.2 1.4 -0.4Q0.6 -0.9 0.3 -1.9L1.6 -2.4Q1.8 -1.7 2.2 -1.4Q2.6 -1.1 3.2 -1.1Q3.8 -1.1 4.2 -1.6Q4.6 -2 4.6 -2.8V-9H6V-2.8Q6 -1.8 5.6 -1.2Q5.2 -0.5 4.6 -0.1Q4 0.2 3.2 0.2Z"/><path id="g20" d="M2.8 0.2Q2.1 0.2 1.6 -0.1Q1.1 -0.4 0.7 -0.8Q0.4 -1.3 0.4 -1.9Q0.4 -2.6 0.8 -3.1Q1.2 -3.6 1.7 -3.8Q2.3 -4.1 3.1 -4.1Q3.5 -4.1 3.8 -4Q4.2 -4 4.4 -3.9Q4.7 -3.8 4.8 -3.7V-4.1Q4.8 -4.7 4.4 -5.1Q3.9 -5.4 3.2 -5.4Q2.7 -5.4 2.3 -5.2Q1.9 -5 1.6 -4.6L0.7 -5.3Q0.9 -5.7 1.3 -6Q1.7 -6.3 2.2 -6.4Q2.7 -6.6 3.2 -6.6Q4.6 -6.6 5.4 -5.9Q6.1 -5.2 6.1 -4V0H4.8V-0.8H4.8Q4.6 -0.5 4.3 -0.3Q4 -0.1 3.6 0.1Q3.3 0.2 2.8 0.2ZM3 -0.9Q3.6 -0.9 4 -1.2Q4.4 -1.4 4.6 -1.8Q4.8 -2.2 4.8 -2.7Q4.5 -2.9 4.2 -3Q3.8 -3.1 3.3 -3.1Q2.5 -3.1 2.1 -2.7Q1.8 -2.4 1.8 -1.9Q1.8 -1.5 2.1 -1.2Q2.5 -0.9 3 -0.9Z"/><path id="g21" d="M2.7 0 0.1 -6.4H1.6L3.3 -1.7H3.4L5.2 -6.4H6.7L4 0Z"/><path id="g22" d="M1 0V-9H4.1Q4.9 -9 5.6 -8.6Q6.2 -8.3 6.6 -7.6Q7 -7 7 -6.2Q7 -5.4 6.6 -4.8Q6.2 -4.2 5.6 -3.8Q4.9 -3.5 4.1 -3.5H1.8V-4.8H4.1Q4.6 -4.8 4.9 -5Q5.3 -5.2 5.5 -5.5Q5.6 -5.9 5.6 -6.2Q5.6 -6.6 5.5 -6.9Q5.3 -7.2 4.9 -7.4Q4.6 -7.7 4.1 -7.7H2.4V0Z"/><path id="g23" d="M0.8 0V-9H2.1V-6.5L2.1 -5.5H2.1Q2.4 -6 2.9 -6.3Q3.5 -6.6 4.1 -6.6Q4.9 -6.6 5.5 -6.2Q6 -5.9 6.3 -5.4Q6.5 -4.8 6.5 -4V0H5.2V-3.9Q5.2 -4.4 5 -4.7Q4.8 -5 4.5 -5.2Q4.2 -5.3 3.8 -5.3Q3.3 -5.3 2.9 -5.1Q2.6 -4.8 2.3 -4.3Q2.1 -3.9 2.1 -3.4V0Z"/><path id="g24" d="M3.8 0.2Q2.8 0.2 2 -0.2Q1.3 -0.7 0.9 -1.5Q0.4 -2.2 0.4 -3.2Q0.4 -4.1 0.9 -4.9Q1.3 -5.7 2 -6.1Q2.8 -6.6 3.8 -6.6Q4.8 -6.6 5.5 -6.1Q6.2 -5.7 6.7 -4.9Q7.1 -4.1 7.1 -3.2Q7.1 -2.2 6.7 -1.5Q6.2 -0.7 5.5 -0.2Q4.8 0.2 3.8 0.2ZM3.8 -1Q4.3 -1 4.8 -1.3Q5.2 -1.6 5.5 -2Q5.8 -2.5 5.8 -3.2Q5.8 -3.9 5.5 -4.3Q5.2 -4.8 4.8 -5.1Q4.3 -5.3 3.8 -5.3Q3.2 -5.3 2.8 -5.1Q2.3 -4.8 2.1 -4.3Q1.8 -3.9 1.8 -3.2Q1.8 -2.5 2.1 -2Q2.3 -1.6 2.8 -1.3Q3.3 -1 3.8 -1Z"/><path id="g25" d="M0.8 0V-6.4H2.1V-5.5H2.1Q2.4 -6 2.9 -6.3Q3.5 -6.6 4.1 -6.6Q5.3 -6.6 5.9 -5.9Q6.5 -5.2 6.5 -4V0H5.2V-3.9Q5.2 -4.6 4.8 -5Q4.4 -5.3 3.8 -5.3Q3.3 -5.3 2.9 -5.1Q2.5 -4.8 2.3 -4.4Q2.1 -3.9 2.1 -3.4V0Z"/><path id="g26" d="M1 0V-9H4.1Q5 -9 5.6 -8.6Q6.3 -8.2 6.6 -7.6Q7 -7 7 -6.2Q7 -5.7 6.8 -5.2Q6.6 -4.7 6.2 -4.3Q5.8 -3.9 5.2 -3.7Q4.6 -3.5 3.9 -3.5H1.8V-4.8H4.1Q4.5 -4.8 4.9 -5Q5.2 -5.2 5.4 -5.5Q5.6 -5.8 5.6 -6.2Q5.6 -6.6 5.5 -6.9Q5.3 -7.2 5 -7.5Q4.6 -7.7 4.2 -7.7H2.4V0ZM3.1 -4.1 4.6 -4.1 7.4 -0.1V0H5.9Z"/><path id="g27" d="M1 0V-9H2.6L6.7 -2.4H6.8L6.7 -4.1V-9H8V0H6.6L2.4 -6.9H2.3L2.4 -5.2V0Z"/><path id="g28" d="M0.1 0 2.7 -3.8H2.8L4.5 -6.4H6.1L3.5 -2.7H3.5L1.7 0ZM0.1 -6.4H1.7L3.5 -3.7H3.6L6.1 0H4.6L2.8 -2.7H2.7Z"/><path id="g29" d="M1.6 0.1Q1.2 0.1 1 -0.2Q0.7 -0.5 0.7 -0.9Q0.7 -1.2 1 -1.5Q1.2 -1.8 1.6 -1.8Q2 -1.8 2.3 -1.5Q2.6 -1.2 2.6 -0.9Q2.6 -0.5 2.3 -0.2Q2 0.1 1.6 0.1Z"/><path id="g30" d="M0.2 2.8Q0 2.8 -0.1 2.8Q-0.3 2.8 -0.5 2.7V1.4Q-0.4 1.5 -0.2 1.6Q0 1.6 0.1 1.6Q0.5 1.6 0.6 1.4Q0.8 1.2 0.8 0.8V-6.4H2.1V0.8Q2.1 1.5 1.9 2Q1.6 2.4 1.2 2.6Q0.8 2.8 0.2 2.8ZM1.5 -7.3Q1.1 -7.3 0.8 -7.6Q0.5 -7.9 0.5 -8.2Q0.5 -8.6 0.8 -8.9Q1.1 -9.1 1.5 -9.1Q1.8 -9.1 2.1 -8.9Q2.4 -8.6 2.4 -8.2Q2.4 -7.9 2.1 -7.6Q1.8 -7.3 1.5 -7.3Z"/><path id="g31" d="M3.1 0.2Q2.3 0.2 1.8 0Q1.2 -0.3 0.9 -0.7Q0.5 -1.1 0.3 -1.5L1.5 -2Q1.8 -1.5 2.2 -1.3Q2.6 -1 3.1 -1Q3.6 -1 4 -1.2Q4.4 -1.4 4.4 -1.8Q4.4 -2 4.2 -2.2Q4 -2.4 3.7 -2.5Q3.5 -2.6 3.1 -2.7L2.3 -2.9Q1.9 -3 1.5 -3.2Q1.1 -3.5 0.8 -3.8Q0.6 -4.2 0.6 -4.7Q0.6 -5.3 0.9 -5.7Q1.2 -6.1 1.8 -6.3Q2.4 -6.6 3 -6.6Q3.6 -6.6 4.1 -6.4Q4.6 -6.3 5 -6Q5.3 -5.7 5.6 -5.2L4.4 -4.7Q4.2 -5.1 3.8 -5.3Q3.5 -5.4 3 -5.4Q2.6 -5.4 2.2 -5.2Q1.9 -5.1 1.9 -4.7Q1.9 -4.4 2.2 -4.2Q2.5 -4 2.9 -3.9L3.8 -3.7Q4.8 -3.5 5.2 -3Q5.7 -2.5 5.7 -1.8Q5.7 -1.2 5.4 -0.7Q5 -0.3 4.4 0Q3.8 0.2 3.1 0.2Z"/><path id="g32" d="M3.4 0 0.2 -9H1.7L3.7 -3L4 -2H4.1L4.4 -3L6.6 -9H8.1L4.8 0Z"/><path id="g33" d="M0.8 0V-9H2.1V0Z"/><path id="g34" d="M2.1 0 0.1 -6.4H1.5L2.9 -1.8H2.9L4.3 -6.4H5.7L7.2 -1.8H7.2L8.5 -6.4H10L7.9 0H6.5L5 -4.6H5L3.5 0Z"/><path id="g35" d="M3.5 0.2Q2.6 0.2 1.9 -0.2Q1.2 -0.7 0.8 -1.4Q0.4 -2.2 0.4 -3.2Q0.4 -4.2 0.8 -4.9Q1.2 -5.7 1.9 -6.1Q2.6 -6.6 3.5 -6.6Q4 -6.6 4.4 -6.4Q4.8 -6.3 5.1 -6Q5.4 -5.8 5.6 -5.5H5.6L5.6 -6.4V-9H6.9V0H5.6V-0.9H5.6Q5.4 -0.6 5.1 -0.3Q4.8 -0.1 4.4 0.1Q4 0.2 3.5 0.2ZM3.7 -1Q4.2 -1 4.6 -1.3Q5.1 -1.6 5.4 -2Q5.6 -2.5 5.6 -3.2Q5.6 -3.9 5.4 -4.3Q5.1 -4.8 4.6 -5.1Q4.2 -5.3 3.7 -5.3Q3.2 -5.3 2.8 -5.1Q2.3 -4.8 2.1 -4.3Q1.8 -3.9 1.8 -3.2Q1.8 -2.5 2.1 -2Q2.3 -1.6 2.8 -1.3Q3.2 -1 3.7 -1Z"/><path id="g36" d="M5.2 0.2Q4.2 0.2 3.4 -0.2Q2.5 -0.5 1.9 -1.1Q1.3 -1.8 0.9 -2.6Q0.6 -3.5 0.6 -4.5Q0.6 -5.5 0.9 -6.3Q1.3 -7.2 1.9 -7.8Q2.5 -8.4 3.4 -8.8Q4.2 -9.2 5.2 -9.2Q5.9 -9.2 6.5 -9Q7.1 -8.8 7.6 -8.5Q8.1 -8.2 8.5 -7.7L7.6 -6.8Q7.3 -7.1 6.9 -7.4Q6.6 -7.6 6.1 -7.7Q5.7 -7.9 5.2 -7.9Q4.3 -7.9 3.6 -7.4Q2.8 -7 2.4 -6.3Q1.9 -5.5 1.9 -4.5Q1.9 -3.5 2.4 -2.7Q2.8 -1.9 3.6 -1.5Q4.3 -1.1 5.2 -1.1Q6 -1.1 6.7 -1.4Q7.3 -1.8 7.8 -2.4L8.8 -1.4Q8.4 -0.9 7.8 -0.6Q7.3 -0.2 6.6 0Q6 0.2 5.2 0.2Z"/><path id="g37" d="M1 0V-9H6.4V-7.7H2.4V0ZM1.8 -3.7V-5H6V-3.7Z"/><path id="g38" d="M3.1 0.2Q1.9 0.2 1.3 -0.5Q0.7 -1.2 0.7 -2.4V-6.4H2.1V-2.6Q2.1 -1.8 2.5 -1.4Q2.8 -1 3.4 -1Q3.9 -1 4.3 -1.3Q4.7 -1.6 4.9 -2Q5.1 -2.5 5.1 -3V-6.4H6.4V0H5.2V-0.9H5.1Q4.9 -0.6 4.6 -0.3Q4.3 -0.1 3.9 0.1Q3.5 0.2 3.1 0.2Z"/><path id="g39" d="M0.3 -5.2V-6.4H1.5V-5.2ZM3.4 0.1Q2.5 0.1 2 -0.4Q1.4 -1 1.4 -1.9V-8.2H2.8V-2.1Q2.8 -1.6 3 -1.4Q3.2 -1.2 3.6 -1.2Q3.8 -1.2 4 -1.2Q4.2 -1.3 4.4 -1.4V-0.1Q4.2 0 3.9 0.1Q3.7 0.1 3.4 0.1ZM2.7 -5.2V-6.4H5.6V-5.2ZM7.5 0.1Q6.6 0.1 6 -0.4Q5.5 -1 5.5 -1.9V-8.2H6.9V-2.1Q6.9 -1.6 7.1 -1.4Q7.3 -1.2 7.7 -1.2Q7.9 -1.2 8.1 -1.2Q8.2 -1.3 8.5 -1.4V-0.1Q8.2 0 8 0.1Q7.7 0.1 7.5 0.1ZM6.8 -5.2V-6.4H8.4V-5.2Z"/><path id="g40" d="M1 0V-9H3.9Q5.3 -9 6.3 -8.4Q7.3 -7.8 7.9 -6.8Q8.4 -5.8 8.4 -4.5Q8.4 -3.2 7.9 -2.1Q7.3 -1.1 6.3 -0.6Q5.3 0 3.9 0ZM2.4 -1.3H3.8Q4.8 -1.3 5.6 -1.7Q6.3 -2.1 6.7 -2.8Q7 -3.5 7 -4.5Q7 -5.5 6.7 -6.2Q6.3 -6.9 5.6 -7.3Q4.8 -7.7 3.8 -7.7H2.4Z"/><path id="g41" d="M0.2 0 3.6 -9H5.1L8.5 0H7L4.7 -6.3L4.4 -7.3H4.3L4 -6.3L1.7 0ZM4.2 -2.3V-3.6H6.3L6.8 -2.3ZM1.8 -2.3 2.2 -3.6H4.2V-2.3Z"/><path id="g42" d="M1 0V-9H6.4V-7.7H2.4V-1.3H6.4V0ZM1.8 -3.8V-5.1H6V-3.8Z"/></defs><g transform="translate(6.00 14.00)" fill="#7B8AAB"><use href="#g0" x="0.0"/><use href="#g1" x="9.1"/><use href="#g2" x="18.2"/><use href="#g3" x="27.3"/><use href="#g4" x="36.4"/><use href="#g5" x="45.5"/><use href="#g6" x="54.6"/><use href="#g6" x="63.7"/><use href="#g3" x="72.8"/><use href="#g7" x="81.9"/><use href="#g3" x="91.0"/><use href="#g8" x="100.1"/><use href="#g9" x="109.2"/></g><rect x="10.5" y="34.5" width="111" height="103" rx="20" fill="#0D1526" stroke="#FFFFFF" stroke-opacity="0.14"/><svg x="46.0" y="54" width="40" height="40" viewBox="0 0 24 24"><g fill="#3178C6"><path d="M1.125 0C.502 0 0 .502 0 1.125v21.75C0 23.498.502 24 1.125 24h21.75c.623 0 1.125-.502 1.125-1.125V1.125C24 .502 23.498 0 22.875 0zm17.363 9.75c.612 0 1.154.037 1.627.111a6.38 6.38 0 0 1 1.306.34v2.458a3.95 3.95 0 0 0-.643-.361 5.093 5.093 0 0 0-.717-.26 5.453 5.453 0 0 0-1.426-.2c-.3 0-.573.028-.819.086a2.1 2.1 0 0 0-.623.242c-.17.104-.3.229-.393.374a.888.888 0 0 0-.14.49c0 .196.053.373.156.529.104.156.252.304.443.444s.423.276.696.41c.273.135.582.274.926.416.47.197.892.407 1.266.628.374.222.695.473.963.753.268.279.472.598.614.957.142.359.214.776.214 1.253 0 .657-.125 1.21-.373 1.656a3.033 3.033 0 0 1-1.012 1.085 4.38 4.38 0 0 1-1.487.596c-.566.12-1.163.18-1.79.18a9.916 9.916 0 0 1-1.84-.164 5.544 5.544 0 0 1-1.512-.493v-2.63a5.033 5.033 0 0 0 3.237 1.2c.333 0 .624-.03.872-.09.249-.06.456-.144.623-.25.166-.108.29-.234.373-.38a1.023 1.023 0 0 0-.074-1.089 2.12 2.12 0 0 0-.537-.5 5.597 5.597 0 0 0-.807-.444 27.72 27.72 0 0 0-1.007-.436c-.918-.383-1.602-.852-2.053-1.405-.45-.553-.676-1.222-.676-2.005 0-.614.123-1.141.369-1.582.246-.441.58-.804 1.004-1.089a4.494 4.494 0 0 1 1.47-.629 7.536 7.536 0 0 1 1.77-.201zm-15.113.188h9.563v2.166H9.506v9.646H6.789v-9.646H3.375z"/></g></svg><g transform="translate(34.96 118.00)" fill="#F0F4FF"><use href="#g10" x="0.0"/><use href="#g11" x="6.4"/><use href="#g12" x="13.1"/><use href="#g13" x="20.8"/><use href="#g14" x="27.9"/><use href="#g15" x="35.0"/><use href="#g16" x="41.9"/><use href="#g17" x="46.9"/><use href="#g12" x="49.8"/><use href="#g18" x="57.2"/></g><rect x="134.5" y="34.5" width="111" height="103" rx="20" fill="#0D1526" stroke="#FFFFFF" stroke-opacity="0.14"/><svg x="170.0" y="54" width="40" height="40" viewBox="0 0 24 24"><g fill="#F7DF1E"><path d="M0 0h24v24H0V0zm22.034 18.276c-.175-1.095-.888-2.015-3.003-2.873-.736-.345-1.554-.585-1.797-1.14-.091-.33-.105-.51-.046-.705.15-.646.915-.84 1.515-.66.39.12.75.42.976.9 1.034-.676 1.034-.676 1.755-1.125-.27-.42-.404-.601-.586-.78-.63-.705-1.469-1.065-2.834-1.034l-.705.089c-.676.165-1.32.525-1.71 1.005-1.14 1.291-.811 3.541.569 4.471 1.365 1.02 3.361 1.244 3.616 2.205.24 1.17-.87 1.545-1.966 1.41-.811-.18-1.26-.586-1.755-1.336l-1.83 1.051c.21.48.45.689.81 1.109 1.74 1.756 6.09 1.666 6.871-1.004.029-.09.24-.705.074-1.65l.046.067zm-8.983-7.245h-2.248c0 1.938-.009 3.864-.009 5.805 0 1.232.063 2.363-.138 2.711-.33.689-1.18.601-1.566.48-.396-.196-.597-.466-.83-.855-.063-.105-.11-.196-.127-.196l-1.825 1.125c.305.63.75 1.172 1.324 1.517.855.51 2.004.675 3.207.405.783-.226 1.458-.691 1.811-1.411.51-.93.402-2.07.397-3.346.012-2.054 0-4.109 0-6.179l.004-.056z"/></g></svg><g transform="translate(159.47 118.00)" fill="#F0F4FF"><use href="#g19" x="0.0"/><use href="#g20" x="6.9"/><use href="#g21" x="13.5"/><use href="#g20" x="20.1"/><use href="#g14" x="26.9"/><use href="#g15" x="34.0"/><use href="#g16" x="40.9"/><use href="#g17" x="45.9"/><use href="#g12" x="48.8"/><use href="#g18" x="56.2"/></g><rect x="258.5" y="34.5" width="111" height="103" rx="20" fill="#0D1526" stroke="#FFFFFF" stroke-opacity="0.14"/><svg x="294.0" y="54" width="40" height="40" viewBox="0 0 24 24"><g fill="#3776AB"><path d="M14.25.18l.9.2.73.26.59.3.45.32.34.34.25.34.16.33.1.3.04.26.02.2-.01.13V8.5l-.05.63-.13.55-.21.46-.26.38-.3.31-.33.25-.35.19-.35.14-.33.1-.3.07-.26.04-.21.02H8.77l-.69.05-.59.14-.5.22-.41.27-.33.32-.27.35-.2.36-.15.37-.1.35-.07.32-.04.27-.02.21v3.06H3.17l-.21-.03-.28-.07-.32-.12-.35-.18-.36-.26-.36-.36-.35-.46-.32-.59-.28-.73-.21-.88-.14-1.05-.05-1.23.06-1.22.16-1.04.24-.87.32-.71.36-.57.4-.44.42-.33.42-.24.4-.16.36-.1.32-.05.24-.01h.16l.06.01h8.16v-.83H6.18l-.01-2.75-.02-.37.05-.34.11-.31.17-.28.25-.26.31-.23.38-.2.44-.18.51-.15.58-.12.64-.1.71-.06.77-.04.84-.02 1.27.05zm-6.3 1.98l-.23.33-.08.41.08.41.23.34.33.22.41.09.41-.09.33-.22.23-.34.08-.41-.08-.41-.23-.33-.33-.22-.41-.09-.41.09zm13.09 3.95l.28.06.32.12.35.18.36.27.36.35.35.47.32.59.28.73.21.88.14 1.04.05 1.23-.06 1.23-.16 1.04-.24.86-.32.71-.36.57-.4.45-.42.33-.42.24-.4.16-.36.09-.32.05-.24.02-.16-.01h-8.22v.82h5.84l.01 2.76.02.36-.05.34-.11.31-.17.29-.25.25-.31.24-.38.2-.44.17-.51.15-.58.13-.64.09-.71.07-.77.04-.84.01-1.27-.04-1.07-.14-.9-.2-.73-.25-.59-.3-.45-.33-.34-.34-.25-.34-.16-.33-.1-.3-.04-.25-.02-.2.01-.13v-5.34l.05-.64.13-.54.21-.46.26-.38.3-.32.33-.24.35-.2.35-.14.33-.1.3-.06.26-.04.21-.02.13-.01h5.84l.69-.05.59-.14.5-.21.41-.28.33-.32.27-.35.2-.36.15-.36.1-.35.07-.32.04-.28.02-.21V6.07h2.09l.14.01zm-6.47 14.25l-.23.33-.08.41.08.41.23.33.33.23.41.08.41-.08.33-.23.23-.33.08-.41-.08-.41-.23-.33-.33-.23-.41-.08-.41.08z"/></g></svg><g transform="translate(293.31 118.00)" fill="#F0F4FF"><use href="#g22" x="0.0"/><use href="#g11" x="7.6"/><use href="#g18" x="14.5"/><use href="#g23" x="19.4"/><use href="#g24" x="26.6"/><use href="#g25" x="34.2"/></g><rect x="382.5" y="34.5" width="111" height="103" rx="20" fill="#0D1526" stroke="#FFFFFF" stroke-opacity="0.14"/><svg x="418.0" y="54" width="40" height="40" viewBox="0 0 24 24"><g fill="#61DAFB"><path d="M14.23 12.004a2.236 2.236 0 0 1-2.235 2.236 2.236 2.236 0 0 1-2.236-2.236 2.236 2.236 0 0 1 2.235-2.236 2.236 2.236 0 0 1 2.236 2.236zm2.648-10.69c-1.346 0-3.107.96-4.888 2.622-1.78-1.653-3.542-2.602-4.887-2.602-.41 0-.783.093-1.106.278-1.375.793-1.683 3.264-.973 6.365C1.98 8.917 0 10.42 0 12.004c0 1.59 1.99 3.097 5.043 4.03-.704 3.113-.39 5.588.988 6.38.32.187.69.275 1.102.275 1.345 0 3.107-.96 4.888-2.624 1.78 1.654 3.542 2.603 4.887 2.603.41 0 .783-.09 1.106-.275 1.374-.792 1.683-3.263.973-6.365C22.02 15.096 24 13.59 24 12.004c0-1.59-1.99-3.097-5.043-4.032.704-3.11.39-5.587-.988-6.38-.318-.184-.688-.277-1.092-.278zm-.005 1.09v.006c.225 0 .406.044.558.127.666.382.955 1.835.73 3.704-.054.46-.142.945-.25 1.44-.96-.236-2.006-.417-3.107-.534-.66-.905-1.345-1.727-2.035-2.447 1.592-1.48 3.087-2.292 4.105-2.295zm-9.77.02c1.012 0 2.514.808 4.11 2.28-.686.72-1.37 1.537-2.02 2.442-1.107.117-2.154.298-3.113.538-.112-.49-.195-.964-.254-1.42-.23-1.868.054-3.32.714-3.707.19-.09.4-.127.563-.132zm4.882 3.05c.455.468.91.992 1.36 1.564-.44-.02-.89-.034-1.345-.034-.46 0-.915.01-1.36.034.44-.572.895-1.096 1.345-1.565zM12 8.1c.74 0 1.477.034 2.202.093.406.582.802 1.203 1.183 1.86.372.64.71 1.29 1.018 1.946-.308.655-.646 1.31-1.013 1.95-.38.66-.773 1.288-1.18 1.87-.728.063-1.466.098-2.21.098-.74 0-1.477-.035-2.202-.093-.406-.582-.802-1.204-1.183-1.86-.372-.64-.71-1.29-1.018-1.946.303-.657.646-1.313 1.013-1.954.38-.66.773-1.286 1.18-1.868.728-.064 1.466-.098 2.21-.098zm-3.635.254c-.24.377-.48.763-.704 1.16-.225.39-.435.782-.635 1.174-.265-.656-.49-1.31-.676-1.947.64-.15 1.315-.283 2.015-.386zm7.26 0c.695.103 1.365.23 2.006.387-.18.632-.405 1.282-.66 1.933-.2-.39-.41-.783-.64-1.174-.225-.392-.465-.774-.705-1.146zm3.063.675c.484.15.944.317 1.375.498 1.732.74 2.852 1.708 2.852 2.476-.005.768-1.125 1.74-2.857 2.475-.42.18-.88.342-1.355.493-.28-.958-.646-1.956-1.1-2.98.45-1.017.81-2.01 1.085-2.964zm-13.395.004c.278.96.645 1.957 1.1 2.98-.45 1.017-.812 2.01-1.086 2.964-.484-.15-.944-.318-1.37-.5-1.732-.737-2.852-1.706-2.852-2.474 0-.768 1.12-1.742 2.852-2.476.42-.18.88-.342 1.356-.494zm11.678 4.28c.265.657.49 1.312.676 1.948-.64.157-1.316.29-2.016.39.24-.375.48-.762.705-1.158.225-.39.435-.788.636-1.18zm-9.945.02c.2.392.41.783.64 1.175.23.39.465.772.705 1.143-.695-.102-1.365-.23-2.006-.386.18-.63.406-1.282.66-1.933zM17.92 16.32c.112.493.2.968.254 1.423.23 1.868-.054 3.32-.714 3.708-.147.09-.338.128-.563.128-1.012 0-2.514-.807-4.11-2.28.686-.72 1.37-1.536 2.02-2.44 1.107-.118 2.154-.3 3.113-.54zm-11.83.01c.96.234 2.006.415 3.107.532.66.905 1.345 1.727 2.035 2.446-1.595 1.483-3.092 2.295-4.11 2.295-.22-.005-.406-.05-.553-.132-.666-.38-.955-1.834-.73-3.703.054-.46.142-.944.25-1.438zm4.56.64c.44.02.89.034 1.345.034.46 0 .915-.01 1.36-.034-.44.572-.895 1.095-1.345 1.565-.455-.47-.91-.993-1.36-1.565z"/></g></svg><g transform="translate(421.32 118.00)" fill="#F0F4FF"><use href="#g26" x="0.0"/><use href="#g13" x="7.7"/><use href="#g20" x="14.8"/><use href="#g15" x="21.6"/><use href="#g18" x="28.5"/></g><rect x="506.5" y="34.5" width="111" height="103" rx="20" fill="#0D1526" stroke="#FFFFFF" stroke-opacity="0.14"/><svg x="542.0" y="54" width="40" height="40" viewBox="0 0 24 24"><g fill="#F0F4FF"><path d="M18.665 21.978C16.758 23.255 14.465 24 12 24 5.377 24 0 18.623 0 12S5.377 0 12 0s12 5.377 12 12c0 3.583-1.574 6.801-4.067 9.001L9.219 7.2H7.2v9.596h1.615V9.251l9.85 12.727Zm-3.332-8.533 1.6 2.061V7.2h-1.6v6.245Z"/></g></svg><g transform="translate(542.35 118.00)" fill="#F0F4FF"><use href="#g27" x="0.0"/><use href="#g13" x="9.0"/><use href="#g28" x="16.0"/><use href="#g18" x="22.2"/><use href="#g29" x="27.1"/><use href="#g30" x="30.3"/><use href="#g31" x="33.2"/></g><rect x="630.5" y="34.5" width="111" height="103" rx="20" fill="#0D1526" stroke="#FFFFFF" stroke-opacity="0.14"/><svg x="666.0" y="54" width="40" height="40" viewBox="0 0 24 24"><g fill="#9135FF"><path d="M13.056 23.238a.57.57 0 0 1-1.02-.355v-5.202c0-.63-.512-1.143-1.144-1.143H5.148a.57.57 0 0 1-.464-.903l3.777-5.29c.54-.753 0-1.804-.93-1.804H.57a.574.574 0 0 1-.543-.746.6.6 0 0 1 .08-.157L5.008.78a.57.57 0 0 1 .467-.24h14.589a.57.57 0 0 1 .466.903l-3.778 5.29c-.54.755 0 1.806.93 1.806h5.745c.238 0 .424.138.513.322a.56.56 0 0 1-.063.603z"/></g></svg><g transform="translate(674.64 118.00)" fill="#F0F4FF"><use href="#g32" x="0.0"/><use href="#g17" x="8.1"/><use href="#g18" x="11.0"/><use href="#g13" x="15.6"/></g><rect x="754.5" y="34.5" width="111" height="103" rx="20" fill="#0D1526" stroke="#FFFFFF" stroke-opacity="0.14"/><svg x="790.0" y="54" width="40" height="40" viewBox="0 0 24 24"><g fill="#06B6D4"><path d="M12.001,4.8c-3.2,0-5.2,1.6-6,4.8c1.2-1.6,2.6-2.2,4.2-1.8c0.913,0.228,1.565,0.89,2.288,1.624 C13.666,10.618,15.027,12,18.001,12c3.2,0,5.2-1.6,6-4.8c-1.2,1.6-2.6,2.2-4.2,1.8c-0.913-0.228-1.565-0.89-2.288-1.624 C16.337,6.182,14.976,4.8,12.001,4.8z M6.001,12c-3.2,0-5.2,1.6-6,4.8c1.2-1.6,2.6-2.2,4.2-1.8c0.913,0.228,1.565,0.89,2.288,1.624 c1.177,1.194,2.538,2.576,5.512,2.576c3.2,0,5.2-1.6,6-4.8c-1.2,1.6-2.6,2.2-4.2,1.8c-0.913-0.228-1.565-0.89-2.288-1.624 C10.337,13.382,8.976,12,6.001,12z"/></g></svg><g transform="translate(773.64 118.00)" fill="#F0F4FF"><use href="#g10" x="0.0"/><use href="#g20" x="6.0"/><use href="#g17" x="12.8"/><use href="#g33" x="15.7"/><use href="#g34" x="18.6"/><use href="#g17" x="28.7"/><use href="#g25" x="31.6"/><use href="#g35" x="38.8"/><use href="#g36" x="49.4"/><use href="#g14" x="58.6"/><use href="#g14" x="65.6"/></g><rect x="878.5" y="34.5" width="111" height="103" rx="20" fill="#0D1526" stroke="#FFFFFF" stroke-opacity="0.14"/><svg x="914.0" y="54" width="40" height="40" viewBox="0 0 128 128"><path fill="url(#nodejs-a)" d="M66.958.825a6.07 6.07 0 0 0-6.035 0L11.103 29.76c-1.895 1.072-2.96 3.095-2.96 5.24v57.988c0 2.143 1.183 4.167 2.958 5.24l49.82 28.934a6.07 6.07 0 0 0 6.036 0l49.82-28.935c1.894-1.072 2.958-3.096 2.958-5.24V35c0-2.144-1.183-4.167-2.958-5.24z"/><path fill="url(#nodejs-b)" d="M116.897 29.76 66.841.825A8.161 8.161 0 0 0 65.302.23L9.21 96.798a6.251 6.251 0 0 0 1.657 1.43l50.057 28.934c1.42.833 3.076 1.072 4.615.595l52.66-96.925a3.702 3.702 0 0 0-1.302-1.072z"/><path fill="url(#nodejs-c)" d="M116.898 98.225c1.42-.833 2.485-2.262 2.958-3.81L65.066.108c-1.42-.238-2.959-.119-4.26.715L11.104 29.639l53.606 98.355c.71-.12 1.54-.358 2.25-.715z"/><defs><linearGradient id="nodejs-a" x1="34.513" x2="27.157" y1="15.535" y2="30.448" gradientTransform="translate(-129.242 -73.715) scale(6.18523)" gradientUnits="userSpaceOnUse"><stop stop-color="#3F873F"/><stop offset=".33" stop-color="#3F8B3D"/><stop offset=".637" stop-color="#3E9638"/><stop offset=".934" stop-color="#3DA92E"/><stop offset="1" stop-color="#3DAE2B"/></linearGradient><linearGradient id="nodejs-b" x1="30.009" x2="50.533" y1="23.359" y2="8.288" gradientTransform="translate(-129.242 -73.715) scale(6.18523)" gradientUnits="userSpaceOnUse"><stop offset=".138" stop-color="#3F873F"/><stop offset=".402" stop-color="#52A044"/><stop offset=".713" stop-color="#64B749"/><stop offset=".908" stop-color="#6ABF4B"/></linearGradient><linearGradient id="nodejs-c" x1="21.917" x2="40.555" y1="22.261" y2="22.261" gradientTransform="translate(-129.242 -73.715) scale(6.18523)" gradientUnits="userSpaceOnUse"><stop offset=".092" stop-color="#6ABF4B"/><stop offset=".287" stop-color="#64B749"/><stop offset=".598" stop-color="#52A044"/><stop offset=".862" stop-color="#3F873F"/></linearGradient></defs></svg><g transform="translate(912.17 118.00)" fill="#F0F4FF"><use href="#g27" x="0.0"/><use href="#g24" x="9.0"/><use href="#g35" x="16.6"/><use href="#g13" x="24.2"/><use href="#g29" x="31.4"/><use href="#g30" x="34.6"/><use href="#g31" x="37.6"/></g><rect x="10.5" y="150.5" width="111" height="103" rx="20" fill="#0D1526" stroke="#FFFFFF" stroke-opacity="0.14"/><svg x="46.0" y="170" width="40" height="40" viewBox="0 0 24 24"><g fill="#02569B"><path d="M14.314 0L2.3 12 6 15.7 21.684.013h-7.357zm.014 11.072L7.857 17.53l6.47 6.47H21.7l-6.46-6.468 6.46-6.46h-7.37z"/></g></svg><g transform="translate(47.16 234.00)" fill="#F0F4FF"><use href="#g37" x="0.0"/><use href="#g33" x="6.8"/><use href="#g38" x="9.7"/><use href="#g39" x="16.9"/><use href="#g13" x="25.6"/><use href="#g16" x="32.7"/></g><rect x="134.5" y="150.5" width="111" height="103" rx="20" fill="#0D1526" stroke="#FFFFFF" stroke-opacity="0.14"/><svg x="170.0" y="170" width="40" height="40" viewBox="0 0 24 24"><g fill="#0175C2"><path d="M4.105 4.105S9.158 1.58 11.684.316a3.079 3.079 0 0 1 1.481-.315c.766.047 1.677.788 1.677.788L24 9.948v9.789h-4.263V24H9.789l-9-9C.303 14.5 0 13.795 0 13.105c0-.319.18-.818.316-1.105l3.789-7.895zm.679.679v11.787c.002.543.021 1.024.498 1.508L10.204 23h8.533v-4.263L4.784 4.784zm12.055-.678c-.899-.896-1.809-1.78-2.74-2.643-.302-.267-.567-.468-1.07-.462-.37.014-.87.195-.87.195L6.341 4.105l10.498.001z"/></g></svg><g transform="translate(177.14 234.00)" fill="#F0F4FF"><use href="#g40" x="0.0"/><use href="#g20" x="9.0"/><use href="#g16" x="15.8"/><use href="#g18" x="20.9"/></g><rect x="258.5" y="150.5" width="111" height="103" rx="20" fill="#0D1526" stroke="#FFFFFF" stroke-opacity="0.14"/><svg x="294.0" y="170" width="40" height="40" viewBox="0 0 24 24"><g fill="#3DDC84"><path d="M18.4395 5.5586c-.675 1.1664-1.352 2.3318-2.0274 3.498-.0366-.0155-.0742-.0286-.1113-.043-1.8249-.6957-3.484-.8-4.42-.787-1.8551.0185-3.3544.4643-4.2597.8203-.084-.1494-1.7526-3.021-2.0215-3.4864a1.1451 1.1451 0 0 0-.1406-.1914c-.3312-.364-.9054-.4859-1.379-.203-.475.282-.7136.9361-.3886 1.5019 1.9466 3.3696-.0966-.2158 1.9473 3.3593.0172.031-.4946.2642-1.3926 1.0177C2.8987 12.176.452 14.772 0 18.9902h24c-.119-1.1108-.3686-2.099-.7461-3.0683-.7438-1.9118-1.8435-3.2928-2.7402-4.1836a12.1048 12.1048 0 0 0-2.1309-1.6875c.6594-1.122 1.312-2.2559 1.9649-3.3848.2077-.3615.1886-.7956-.0079-1.1191a1.1001 1.1001 0 0 0-.8515-.5332c-.5225-.0536-.9392.3128-1.0488.5449zm-.0391 8.461c.3944.5926.324 1.3306-.1563 1.6503-.4799.3197-1.188.0985-1.582-.4941-.3944-.5927-.324-1.3307.1563-1.6504.4727-.315 1.1812-.1086 1.582.4941zM7.207 13.5273c.4803.3197.5506 1.0577.1563 1.6504-.394.5926-1.1038.8138-1.584.4941-.48-.3197-.5503-1.0577-.1563-1.6504.4008-.6021 1.1087-.8106 1.584-.4941z"/></g></svg><g transform="translate(290.79 234.00)" fill="#F0F4FF"><use href="#g41" x="0.0"/><use href="#g25" x="8.7"/><use href="#g35" x="15.9"/><use href="#g16" x="23.6"/><use href="#g24" x="28.3"/><use href="#g17" x="35.8"/><use href="#g35" x="38.7"/></g><rect x="382.5" y="150.5" width="111" height="103" rx="20" fill="#0D1526" stroke="#FFFFFF" stroke-opacity="0.14"/><svg x="418.0" y="170" width="40" height="40" viewBox="0 0 24 24"><g fill="#F0F4FF"><path d="M0 20.084c.043.53.23 1.063.718 1.778.58.849 1.576 1.315 2.303.567.49-.505 5.794-9.776 8.35-13.29a.761.761 0 011.248 0c2.556 3.514 7.86 12.785 8.35 13.29.727.748 1.723.282 2.303-.567.57-.835.728-1.42.728-2.046 0-.426-8.26-15.798-9.092-17.078-.8-1.23-1.044-1.498-2.397-1.542h-1.032c-1.353.044-1.597.311-2.398 1.542C8.267 3.991.33 18.758 0 19.77Z"/></g></svg><g transform="translate(423.85 234.00)" fill="#F0F4FF"><use href="#g42" x="0.0"/><use href="#g28" x="6.9"/><use href="#g12" x="13.1"/><use href="#g24" x="20.8"/></g></svg>
