<svg xmlns="http://www.w3.org/2000/svg" width="1000" height="64" viewBox="0 0 1000 64" role="img" aria-label="Contact"><title>Contact</title><defs><path id="g0" d="M3.7 -0.7V-7.5L1.6 -6.4L0.8 -7.9L4.2 -9.7H5.5V-0.7ZM1.2 0V-1.7H7.7V0Z"/><path id="g1" d="M0.9 0V-1.5L4.2 -5.1Q4.7 -5.8 4.9 -6.2Q5.1 -6.6 5.1 -7V-7.1Q5.1 -7.6 4.8 -7.8Q4.5 -8.1 4 -8.1Q3 -8.1 2.5 -7L0.8 -7.6Q1.3 -8.7 2.1 -9.3Q3 -9.9 4.2 -9.9Q5 -9.9 5.7 -9.6Q6.3 -9.2 6.7 -8.6Q7 -8.1 7 -7.3V-7.2Q7 -6.7 6.9 -6.3Q6.7 -5.8 6.4 -5.3Q6 -4.8 5.4 -4.1L3.2 -1.7V-1.7H7.2V0Z"/><path id="g2" d="M10.1 0.4Q8.2 0.4 6.5 -0.3Q4.9 -1 3.7 -2.2Q2.4 -3.4 1.8 -5.1Q1.1 -6.7 1.1 -8.6Q1.1 -10.5 1.8 -12.1Q2.4 -13.8 3.7 -15Q4.9 -16.2 6.5 -16.9Q8.2 -17.6 10.1 -17.6Q11.4 -17.6 12.6 -17.2Q13.8 -16.9 14.7 -16.3Q15.7 -15.7 16.5 -14.8L14.2 -12.6Q13.7 -13.2 13.1 -13.6Q12.5 -14 11.8 -14.3Q11 -14.5 10.1 -14.5Q8.5 -14.5 7.2 -13.8Q5.9 -13 5.1 -11.7Q4.3 -10.4 4.3 -8.6Q4.3 -6.8 5.1 -5.5Q5.9 -4.2 7.2 -3.4Q8.5 -2.7 10.1 -2.7Q11.5 -2.7 12.7 -3.3Q13.8 -3.9 14.6 -4.9L16.9 -2.8Q16.1 -1.8 15 -1Q14 -0.3 12.7 0Q11.5 0.4 10.1 0.4Z"/><path id="g3" d="M7.4 0.4Q5.4 0.4 4 -0.5Q2.5 -1.3 1.7 -2.8Q0.8 -4.3 0.8 -6.1Q0.8 -8 1.7 -9.4Q2.5 -10.9 4 -11.8Q5.4 -12.6 7.4 -12.6Q9.3 -12.6 10.8 -11.8Q12.2 -10.9 13 -9.4Q13.9 -8 13.9 -6.1Q13.9 -4.3 13 -2.8Q12.2 -1.3 10.8 -0.5Q9.3 0.4 7.4 0.4ZM7.4 -2.5Q8.3 -2.5 9 -3Q9.8 -3.4 10.3 -4.2Q10.7 -5 10.7 -6.1Q10.7 -7.2 10.3 -8Q9.8 -8.8 9 -9.3Q8.3 -9.7 7.4 -9.7Q6.5 -9.7 5.7 -9.3Q4.9 -8.8 4.5 -8Q4 -7.2 4 -6.1Q4 -5 4.5 -4.2Q4.9 -3.4 5.7 -3Q6.5 -2.5 7.4 -2.5Z"/><path id="g4" d="M1.5 0V-12.2H4.5V-10.7H4.7Q5.2 -11.6 6.2 -12.1Q7.2 -12.6 8.4 -12.6Q10.7 -12.6 11.8 -11.3Q12.9 -9.9 12.9 -7.6V0H9.8V-7.2Q9.8 -8.4 9.2 -9.1Q8.5 -9.7 7.5 -9.7Q6.6 -9.7 6 -9.2Q5.4 -8.8 5 -8Q4.7 -7.2 4.7 -6.2V0Z"/><path id="g5" d="M0.6 -9.6V-12.2H2.9V-9.6ZM6.8 0.2Q4.9 0.2 3.8 -0.9Q2.7 -2 2.7 -3.9V-15.7H5.9V-4.5Q5.9 -3.6 6.2 -3.2Q6.6 -2.8 7.4 -2.8Q7.8 -2.8 8.1 -2.9Q8.5 -3 9 -3.3V-0.2Q8.4 0 7.9 0.1Q7.4 0.2 6.8 0.2ZM5.8 -9.6V-12.2H8.9V-9.6Z"/><path id="g6" d="M5.3 0.4Q4 0.4 3 -0.1Q2 -0.6 1.4 -1.6Q0.8 -2.5 0.8 -3.7Q0.8 -5 1.5 -5.9Q2.2 -6.8 3.3 -7.3Q4.4 -7.8 5.8 -7.8Q6.5 -7.8 7.1 -7.8Q7.7 -7.7 8.2 -7.6Q8.7 -7.4 9 -7.3V-7.8Q9 -8.8 8.3 -9.4Q7.5 -10.1 6.2 -10.1Q5.4 -10.1 4.5 -9.7Q3.7 -9.3 3.2 -8.6L1.2 -10.2Q1.8 -11 2.6 -11.5Q3.4 -12.1 4.3 -12.3Q5.3 -12.6 6.4 -12.6Q9.2 -12.6 10.6 -11.3Q12.1 -10 12.1 -7.5V0H9V-1.2H8.8Q8.5 -0.8 8 -0.4Q7.5 -0.1 6.8 0.2Q6.1 0.4 5.3 0.4ZM6 -2.1Q7 -2.1 7.6 -2.5Q8.3 -2.9 8.7 -3.6Q9 -4.2 9 -5Q8.5 -5.3 7.8 -5.4Q7.1 -5.6 6.4 -5.6Q5 -5.6 4.5 -5Q4 -4.5 4 -3.7Q4 -3 4.5 -2.5Q5 -2.1 6 -2.1Z"/><path id="g7" d="M7.3 0.4Q5.4 0.4 3.9 -0.4Q2.5 -1.3 1.7 -2.7Q0.8 -4.2 0.8 -6.1Q0.8 -8 1.7 -9.5Q2.5 -10.9 3.9 -11.8Q5.4 -12.6 7.3 -12.6Q9.3 -12.6 10.8 -11.8Q12.2 -10.9 12.9 -9.3L10 -8.1Q9.6 -8.9 8.9 -9.3Q8.2 -9.7 7.3 -9.7Q6.3 -9.7 5.6 -9.3Q4.8 -8.8 4.4 -8Q4 -7.2 4 -6.1Q4 -5 4.4 -4.2Q4.8 -3.4 5.6 -3Q6.3 -2.5 7.3 -2.5Q8.3 -2.5 9 -3Q9.7 -3.5 10.2 -4.3L13 -3Q12.2 -1.5 10.8 -0.6Q9.3 0.4 7.3 0.4Z"/><path id="g8" d="M4.9 0.2Q3.8 0.2 3.2 -0.4Q2.5 -1.1 2.5 -2.2V-9.1H3.9V-2.3Q3.9 -1.1 5 -1.1Q5.3 -1.1 5.6 -1.2Q5.9 -1.3 6.1 -1.6L6.9 -0.6Q6.5 -0.2 6 0Q5.5 0.2 4.9 0.2ZM0.6 -8V-9.1H3.4V-8Z"/><path id="g9" d="M3.9 0.2Q3 0.2 2.2 -0.2Q1.5 -0.6 1.1 -1.4Q0.7 -2.2 0.7 -3.2V-3.4Q0.7 -4.4 1.1 -5.2Q1.5 -5.9 2.2 -6.3Q3 -6.8 3.9 -6.8Q4.8 -6.8 5.4 -6.4Q6 -6 6.4 -5.4Q6.7 -4.7 6.7 -3.8Q6.7 -3.6 6.7 -3.3Q6.7 -3.1 6.7 -2.9H1.5V-3.9H5.4Q5.4 -4.7 5 -5.1Q4.6 -5.6 3.9 -5.6Q3.1 -5.6 2.6 -5Q2.1 -4.4 2.1 -3.4V-3.2Q2.1 -2.2 2.6 -1.6Q3.1 -1 4 -1Q5 -1 5.5 -2L6.7 -1.4Q6.3 -0.6 5.6 -0.2Q4.9 0.2 3.9 0.2Z"/><path id="g10" d="M4.9 0.2Q3.7 0.2 3 -0.5Q2.4 -1.1 2.4 -2.3V-8.3H3.8V-2.4Q3.8 -1.7 4.1 -1.4Q4.4 -1.1 5 -1.1Q5.6 -1.1 6.1 -1.6L6.8 -0.6Q6.1 0.2 4.9 0.2ZM0.7 -5.4V-6.6H6.5V-5.4Z"/><path id="g11" d="M2.9 -5.6V-9.1H4.6V-5.6Z"/><path id="g12" d="M4.1 0.2Q2.9 0.2 2.2 -0.3Q1.4 -0.7 1 -1.6L2.2 -2.1Q2.4 -1.6 2.9 -1.3Q3.4 -1 4 -1Q4.6 -1 4.9 -1.2Q5.2 -1.4 5.2 -1.7V-1.8Q5.2 -2.1 4.9 -2.3Q4.7 -2.5 4 -2.7L3.1 -2.9Q2.3 -3.1 1.9 -3.6Q1.4 -4.1 1.4 -4.8V-4.8Q1.4 -5.7 2.1 -6.2Q2.8 -6.8 3.9 -6.8Q4.9 -6.8 5.5 -6.4Q6.2 -6 6.5 -5.3L5.3 -4.8Q4.9 -5.6 3.8 -5.6Q3.3 -5.6 3 -5.4Q2.7 -5.2 2.7 -4.9V-4.8Q2.7 -4.6 3 -4.4Q3.2 -4.2 3.7 -4.1L4.6 -3.8Q5.6 -3.6 6 -3.1Q6.5 -2.6 6.5 -1.8V-1.8Q6.5 -0.9 5.8 -0.3Q5.2 0.2 4.1 0.2Z"/><path id="g13" d="M1.5 0 0.1 -6.6H1.4L2.1 -2.3L2.2 -1.5H2.3L2.4 -2.3L3.1 -5.8H4.4L5.2 -2.3L5.3 -1.5H5.3L5.4 -2.3L6.1 -6.6H7.4L6 0H4.6L3.9 -3.6L3.8 -4.4H3.7L3.6 -3.6L2.9 0Z"/><path id="g14" d="M0.6 -3.2V-3.4Q0.6 -4.4 1 -5.1Q1.4 -5.9 2.1 -6.3Q2.8 -6.8 3.8 -6.8Q4.7 -6.8 5.4 -6.3Q6.1 -5.9 6.5 -5.1Q6.9 -4.4 6.9 -3.4V-3.2Q6.9 -2.2 6.5 -1.4Q6.1 -0.7 5.4 -0.2Q4.7 0.2 3.8 0.2Q2.8 0.2 2.1 -0.2Q1.4 -0.7 1 -1.4Q0.6 -2.2 0.6 -3.2ZM5.5 -3.2V-3.3Q5.5 -4.3 5 -4.9Q4.5 -5.5 3.8 -5.5Q3 -5.5 2.5 -4.9Q2 -4.3 2 -3.3V-3.2Q2 -2.2 2.5 -1.6Q3 -1.1 3.8 -1.1Q4.5 -1.1 5 -1.6Q5.5 -2.2 5.5 -3.2Z"/><path id="g15" d="M2.2 -0.5V-6.6H3.4V-5.2H3.4Q3.7 -5.9 4.3 -6.3Q4.8 -6.8 5.5 -6.8Q6 -6.8 6.4 -6.6Q6.8 -6.4 7.2 -5.9L6.2 -4.9Q6 -5.2 5.7 -5.3Q5.4 -5.5 5 -5.5Q4.3 -5.5 3.9 -4.9Q3.5 -4.4 3.5 -3.4V-0.5ZM0.7 0V-1.1H5.6V0ZM0.8 -5.5V-6.6H2.8V-5.5Z"/><path id="g16" d="M5.2 0 2.3 -3.5V-3.6L5 -6.6H6.7L3.6 -3.2V-3.9L6.9 0ZM1 0V-9.1H2.3V0Z"/><path id="g17" d="M3.7 3.6Q2.7 3.6 2 3.3Q1.2 3 0.8 2.5Q0.4 2 0.4 1.3Q0.4 0.7 0.9 0.1Q1.3 -0.4 2 -0.6L2.3 0Q2 0.2 1.8 0.5Q1.7 0.8 1.7 1.2Q1.7 1.8 2.2 2.1Q2.7 2.4 3.7 2.4Q4.7 2.4 5.3 2.1Q5.8 1.7 5.8 1.1Q5.8 0.3 4.8 0.3H1.6V-0.2L2.9 -2.2L3.7 -2.1L3.2 -0.8H4.9Q6 -0.8 6.5 -0.3Q7.1 0.2 7.1 1.1Q7.1 1.8 6.7 2.4Q6.3 3 5.5 3.3Q4.8 3.6 3.7 3.6ZM3.8 -1.8Q3 -1.8 2.4 -2.1Q1.8 -2.4 1.4 -3Q1 -3.5 1 -4.2V-4.3Q1 -5 1.4 -5.6Q1.7 -6.1 2.3 -6.4Q3 -6.8 3.7 -6.8Q4.5 -6.8 5.1 -6.4Q5.8 -6.1 6.1 -5.5Q6.5 -5 6.5 -4.3V-4.2Q6.5 -3.5 6.1 -3Q5.8 -2.4 5.2 -2.1Q4.6 -1.8 3.8 -1.8ZM3.8 -2.9Q4.4 -2.9 4.8 -3.2Q5.2 -3.6 5.2 -4.2V-4.3Q5.2 -4.9 4.8 -5.2Q4.4 -5.6 3.8 -5.6Q3.1 -5.6 2.7 -5.2Q2.3 -4.9 2.3 -4.3V-4.2Q2.3 -3.6 2.7 -3.2Q3.1 -2.9 3.8 -2.9ZM5.2 -5.9 4.7 -6.2Q4.9 -7.1 5.5 -7.5Q6.1 -8 6.9 -8V-6.6Q5.8 -6.6 5.2 -5.9Z"/><path id="g18" d="M1.1 0V-9.1H2.4V-5.7H2.5Q3.3 -6.8 4.6 -6.8Q5.5 -6.8 6.1 -6.1Q6.6 -5.5 6.6 -4.4V0H5.2V-4.1Q5.2 -5.6 4 -5.6Q3.3 -5.6 2.9 -5.1Q2.4 -4.6 2.4 -3.8V0Z"/></defs><rect x="0.5" y="0.5" width="999" height="63" rx="20" fill="#FFFFFF" stroke="#2563EB" stroke-opacity="0.22"/><rect x="16" y="16" width="46" height="32" rx="10" fill="#2563EB" fill-opacity="0.13"/><g transform="translate(30.40 37.00)" fill="#2563EB"><use href="#g0" x="0.0"/><use href="#g1" x="9.1"/></g><g transform="translate(80.00 41.50)" fill="#0F172A"><use href="#g2" x="0.0"/><use href="#g3" x="17.2"/><use href="#g4" x="31.6"/><use href="#g5" x="45.3"/><use href="#g6" x="54.7"/><use href="#g7" x="67.9"/><use href="#g5" x="80.9"/></g><g transform="translate(833.50 37.00)" fill="#475569"><use href="#g8" x="0.0"/><use href="#g9" x="7.5"/><use href="#g10" x="15.0"/><use href="#g11" x="22.5"/><use href="#g12" x="30.0"/><use href="#g13" x="45.0"/><use href="#g14" x="52.5"/><use href="#g15" x="60.0"/><use href="#g16" x="67.5"/><use href="#g10" x="82.5"/><use href="#g14" x="90.0"/><use href="#g17" x="97.5"/><use href="#g9" x="105.0"/><use href="#g10" x="112.5"/><use href="#g18" x="120.0"/><use href="#g9" x="127.5"/><use href="#g15" x="135.0"/></g></svg>
